<svg xmlns="http://www.w3.org/2000/svg" viewBox="0 0 400 400" width="400" height="400" role="img">
<defs>
<linearGradient id="sheen" x1="0" y1="0" x2="1" y2="0"><stop offset="0" stop-color="#fff" stop-opacity=".38"/><stop offset=".35" stop-color="#fff" stop-opacity="0"/><stop offset=".75" stop-color="#000" stop-opacity="0"/><stop offset="1" stop-color="#000" stop-opacity=".2"/></linearGradient>
<linearGradient id="steel" x1="0" y1="0" x2="1" y2="0"><stop offset="0" stop-color="#e7ebf3"/><stop offset=".45" stop-color="#ffffff"/><stop offset="1" stop-color="#b9c0d0"/></linearGradient>

</defs>
<ellipse cx="200" cy="356" rx="118" ry="13" fill="#1b1d4b" opacity=".13"/>

<g transform="rotate(-10 150 120)"><rect x="112" y="52" width="62" height="96" rx="8" fill="#1d3f8a" stroke="#d99a00" stroke-width="2"/><rect x="112" y="52" width="62" height="14" rx="6" fill="#d99a00" opacity=".7"/></g>
<g transform="rotate(9 250 120)"><rect x="228" y="46" width="62" height="100" rx="8" fill="#ffffff" stroke="#d99a00" stroke-width="2"/><rect x="228" y="46" width="62" height="14" rx="6" fill="#ffc72c"/></g>
<rect x="96" y="112" width="208" height="232" rx="16" fill="#ffc72c"/>
<path d="M96 128 q0 -16 16 -16 h176 q16 0 16 16 v28 H96 Z" fill="#d99a00"/>
<text x="200" y="145" font-family="Poppins, 'Segoe UI', Arial, Helvetica, sans-serif" font-size="24.0" font-weight="800" fill="#1d3f8a" text-anchor="middle" >PEDIGREE</text>
<circle cx="200" cy="216" r="42" fill="#fff" opacity=".96"/>
<g transform="translate(171 188) scale(0.906)"><ellipse cx="14" cy="32" rx="7.5" ry="15" transform="rotate(14 14 32)" fill="#e6a800" opacity=".78"/><ellipse cx="50" cy="32" rx="7.5" ry="15" transform="rotate(-14 50 32)" fill="#e6a800" opacity=".78"/><ellipse cx="32" cy="32" rx="16" ry="17.5" fill="#e6a800"/><ellipse cx="32" cy="40" rx="9.5" ry="7.5" fill="#fff" opacity=".92"/><circle cx="25.5" cy="29" r="3" fill="#fff"/><circle cx="38.5" cy="29" r="3" fill="#fff"/><circle cx="25.9" cy="29.3" r="1.7" fill="#1b1d4b"/><circle cx="38.1" cy="29.3" r="1.7" fill="#1b1d4b"/><ellipse cx="32" cy="37.5" rx="3.6" ry="2.6" fill="#1b1d4b"/><path d="M32 40 v2.5 M32 42.5 q-3.5 3 -6 .5 M32 42.5 q3.5 3 6 .5" stroke="#1b1d4b" stroke-width="1.5" fill="none" stroke-linecap="round"/></g>
<text x="200" y="292" font-family="Poppins, 'Segoe UI', Arial, Helvetica, sans-serif" font-size="21.4" font-weight="800" fill="#1d3f8a" text-anchor="middle" >CHICKEN GRAVY</text>
<rect x="140" y="306" width="120" height="28" rx="14" fill="#1d3f8a"/>
<text x="200" y="325" font-family="Poppins, 'Segoe UI', Arial, Helvetica, sans-serif" font-size="15.0" font-weight="700" fill="#ffffff" text-anchor="middle" >12 x 80 g</text>
<rect x="96" y="112" width="208" height="232" rx="16" fill="url(#sheen)"/>
</svg>