<svg xmlns="http://www.w3.org/2000/svg" viewBox="0 0 400 400" width="400" height="400" role="img">
<defs>
<linearGradient id="sheen" x1="0" y1="0" x2="1" y2="0"><stop offset="0" stop-color="#fff" stop-opacity=".38"/><stop offset=".35" stop-color="#fff" stop-opacity="0"/><stop offset=".75" stop-color="#000" stop-opacity="0"/><stop offset="1" stop-color="#000" stop-opacity=".2"/></linearGradient>
<linearGradient id="steel" x1="0" y1="0" x2="1" y2="0"><stop offset="0" stop-color="#e7ebf3"/><stop offset=".45" stop-color="#ffffff"/><stop offset="1" stop-color="#b9c0d0"/></linearGradient>

</defs>

<rect x="24" y="24" width="352" height="340" rx="28" fill="#ffffff" stroke="#f3d4e3" stroke-width="3"/>
<rect x="24" y="24" width="352" height="70" rx="28" fill="#fde6ee"/><rect x="24" y="70" width="352" height="24" fill="#fde6ee"/>
<g transform="translate(44 38) scale(0.688)"><ellipse cx="24" cy="15" rx="5.5" ry="14" transform="rotate(-8 24 15)" fill="#8a5a2b"/><ellipse cx="40" cy="15" rx="5.5" ry="14" transform="rotate(8 40 15)" fill="#8a5a2b"/><ellipse cx="24" cy="16" rx="2.6" ry="9" transform="rotate(-8 24 16)" fill="#fff" opacity=".55"/><ellipse cx="40" cy="16" rx="2.6" ry="9" transform="rotate(8 40 16)" fill="#fff" opacity=".55"/><ellipse cx="32" cy="41" rx="18" ry="16" fill="#8a5a2b"/><circle cx="25" cy="38" r="3" fill="#fff"/><circle cx="39" cy="38" r="3" fill="#fff"/><circle cx="25.3" cy="38.3" r="1.6" fill="#1b1d4b"/><circle cx="38.7" cy="38.3" r="1.6" fill="#1b1d4b"/><ellipse cx="32" cy="44.5" rx="2.6" ry="2" fill="#1b1d4b"/><path d="M32 46.5 q-3 3 -5.5 1 M32 46.5 q3 3 5.5 1" stroke="#1b1d4b" stroke-width="1.4" fill="none" stroke-linecap="round"/></g>
<text x="96" y="66" font-family="Poppins, 'Segoe UI', Arial, Helvetica, sans-serif" font-size="20.0" font-weight="800" fill="#1b1d4b" text-anchor="start" >Product details</text>
<text x="52" y="150" font-family="Poppins, 'Segoe UI', Arial, Helvetica, sans-serif" font-size="14" font-weight="600" fill="#8a8fb0">Brand</text>
<text x="348" y="150" font-family="Poppins, 'Segoe UI', Arial, Helvetica, sans-serif" font-size="16.0" font-weight="700" fill="#1b1d4b" text-anchor="end" >Oxbow</text>
<path d="M52 164 H348" stroke="#ece5f5" stroke-width="2"/><text x="52" y="194" font-family="Poppins, 'Segoe UI', Arial, Helvetica, sans-serif" font-size="14" font-weight="600" fill="#8a8fb0">For</text>
<text x="348" y="194" font-family="Poppins, 'Segoe UI', Arial, Helvetica, sans-serif" font-size="15.6" font-weight="700" fill="#1b1d4b" text-anchor="end" >Rabbits, Small pets</text>
<path d="M52 208 H348" stroke="#ece5f5" stroke-width="2"/><text x="52" y="238" font-family="Poppins, 'Segoe UI', Arial, Helvetica, sans-serif" font-size="14" font-weight="600" fill="#8a8fb0">Age</text>
<text x="348" y="238" font-family="Poppins, 'Segoe UI', Arial, Helvetica, sans-serif" font-size="16.0" font-weight="700" fill="#1b1d4b" text-anchor="end" >All ages</text>
<path d="M52 252 H348" stroke="#ece5f5" stroke-width="2"/><text x="52" y="282" font-family="Poppins, 'Segoe UI', Arial, Helvetica, sans-serif" font-size="14" font-weight="600" fill="#8a8fb0">Pack size</text>
<text x="348" y="282" font-family="Poppins, 'Segoe UI', Arial, Helvetica, sans-serif" font-size="16.0" font-weight="700" fill="#1b1d4b" text-anchor="end" >1 kg</text>
<path d="M52 296 H348" stroke="#ece5f5" stroke-width="2"/><text x="52" y="326" font-family="Poppins, 'Segoe UI', Arial, Helvetica, sans-serif" font-size="14" font-weight="600" fill="#8a8fb0">Suits</text>
<text x="348" y="326" font-family="Poppins, 'Segoe UI', Arial, Helvetica, sans-serif" font-size="14.8" font-weight="700" fill="#1b1d4b" text-anchor="end" >Rabbits, guinea pigs</text>
<path d="M52 340 H348" stroke="#ece5f5" stroke-width="2"/>
</svg>