<svg xmlns="http://www.w3.org/2000/svg" viewBox="0 0 400 400" width="400" height="400" role="img">
<defs>
<linearGradient id="sheen" x1="0" y1="0" x2="1" y2="0"><stop offset="0" stop-color="#fff" stop-opacity=".38"/><stop offset=".35" stop-color="#fff" stop-opacity="0"/><stop offset=".75" stop-color="#000" stop-opacity="0"/><stop offset="1" stop-color="#000" stop-opacity=".2"/></linearGradient>
<linearGradient id="steel" x1="0" y1="0" x2="1" y2="0"><stop offset="0" stop-color="#e7ebf3"/><stop offset=".45" stop-color="#ffffff"/><stop offset="1" stop-color="#b9c0d0"/></linearGradient>

</defs>
<ellipse cx="200" cy="356" rx="118" ry="13" fill="#1b1d4b" opacity=".13"/>
<circle cx="200" cy="34" r="12" fill="none" stroke="#1e4c96" stroke-width="5"/><path d="M200 46 v14" stroke="#1e4c96" stroke-width="5"/>
<path d="M118 130 Q118 46 200 46 Q282 46 282 130" fill="#ffffff" fill-opacity=".14" stroke="#1e4c96" stroke-width="5"/>
<rect x="118" y="130" width="164" height="172" fill="#ffffff" fill-opacity=".08"/>
<path d="M138 75.0 V300" stroke="#1e4c96" stroke-width="3.5"/><path d="M152 61.9 V300" stroke="#1e4c96" stroke-width="3.5"/><path d="M166 53.6 V300" stroke="#1e4c96" stroke-width="3.5"/><path d="M180 48.5 V300" stroke="#1e4c96" stroke-width="3.5"/><path d="M194 46.2 V300" stroke="#1e4c96" stroke-width="3.5"/><path d="M208 46.4 V300" stroke="#1e4c96" stroke-width="3.5"/><path d="M222 49.1 V300" stroke="#1e4c96" stroke-width="3.5"/><path d="M236 54.5 V300" stroke="#1e4c96" stroke-width="3.5"/><path d="M250 63.4 V300" stroke="#1e4c96" stroke-width="3.5"/>
<path d="M118 130 H282" stroke="#1e4c96" stroke-width="5"/>
<rect x="104" y="298" width="192" height="46" rx="10" fill="#2f6fd0"/>
<rect x="104" y="298" width="192" height="12" rx="6" fill="#fff" opacity=".25"/>
<path d="M132 250 H268" stroke="#a47a46" stroke-width="9" stroke-linecap="round"/>
<g transform="translate(159 187) scale(0.969)"><path d="M13 44 L4 57 L21 51 Z" fill="#38bdf8" opacity=".8"/><ellipse cx="30" cy="37" rx="19" ry="15" fill="#38bdf8"/><circle cx="43" cy="23" r="11" fill="#38bdf8"/><path d="M18 35 q10 -10 22 0 q-6 14 -20 8 z" fill="#fff" opacity=".3"/><path d="M52 21 l9 3.5 l-9 3.5 z" fill="#ffb020"/><circle cx="46" cy="21" r="3" fill="#fff"/><circle cx="46.6" cy="21.3" r="1.6" fill="#1b1d4b"/><path d="M26 51 v6 M34 51 v6 M23 57 h6 M31 57 h6" stroke="#ffb020" stroke-width="2" stroke-linecap="round"/></g>
<rect x="248" y="272" width="30" height="20" rx="6" fill="#ffffff" stroke="#1e4c96" stroke-width="3"/>
</svg>